<?xml version="1.0" encoding="utf-8"?>
<!-- Generator: Adobe Illustrator 23.0.6, SVG Export Plug-In . SVG Version: 6.00 Build 0)  -->
<svg version="1.1" id="Layer_1" xmlns="http://www.w3.org/2000/svg" xmlns:xlink="http://www.w3.org/1999/xlink" x="0px" y="0px"
	 viewBox="0 0 304.1 83.4" style="enable-background:new 0 0 304.1 83.4;" xml:space="preserve">
<style type="text/css">
	.st0{fill:url(#SVGID_1_);}
	.st1{fill:url(#SVGID_2_);}
	.st2{fill:url(#SVGID_3_);}
	.st3{fill:url(#SVGID_4_);}
	.st4{fill:url(#SVGID_5_);}
	.st5{fill:url(#SVGID_6_);}
	.st6{fill:url(#SVGID_7_);}
	.st7{fill:url(#SVGID_8_);}
	.st8{fill:url(#SVGID_9_);}
	.st9{fill:url(#SVGID_10_);}
	.st10{fill:url(#SVGID_11_);}
	.st11{fill:url(#SVGID_12_);}
	.st12{fill:url(#SVGID_13_);}
	.st13{fill:url(#SVGID_14_);}
	.st14{fill:url(#SVGID_15_);}
	.st15{fill:url(#SVGID_16_);}
	.st16{fill:url(#SVGID_17_);}
	.st17{fill:url(#SVGID_18_);}
	.st18{fill:url(#SVGID_19_);}
	.st19{fill:url(#SVGID_20_);}
	.st20{fill:url(#SVGID_21_);}
	.st21{fill:url(#SVGID_22_);}
	.st22{fill:url(#SVGID_23_);}
	.st23{fill:url(#SVGID_24_);}
	.st24{fill:url(#SVGID_25_);}
	.st25{fill:url(#SVGID_26_);}
	.st26{fill:url(#SVGID_27_);}
	.st27{fill:url(#SVGID_28_);}
	.st28{fill:url(#SVGID_29_);}
	.st29{fill:url(#SVGID_30_);}
	.st30{fill:#414042;}
</style>
<g>
	
		<linearGradient id="SVGID_1_" gradientUnits="userSpaceOnUse" x1="48.8943" y1="44.0499" x2="72.2281" y2="44.0499" gradientTransform="matrix(1 0 0 -1 0 86)">
		<stop  offset="0" style="stop-color:#F15A29"/>
		<stop  offset="0.8949" style="stop-color:#1B75BC"/>
	</linearGradient>
	<path class="st0" d="M14,42.1c0.1-2.4-1.8-4.3-4.1-4.4c-2.4-0.1-4.3,1.8-4.4,4.1c-0.1,2.4,1.8,4.3,4.1,4.4S13.9,44.5,14,42.1z"/>
	
		<linearGradient id="SVGID_2_" gradientUnits="userSpaceOnUse" x1="48.8935" y1="64.05" x2="72.2271" y2="64.05" gradientTransform="matrix(1 0 0 -1 0 86)">
		<stop  offset="0" style="stop-color:#F15A29"/>
		<stop  offset="0.8949" style="stop-color:#1B75BC"/>
	</linearGradient>
	<path class="st1" d="M16.2,26.2c2.4,0.1,4.3-1.8,4.4-4.1c0.1-2.4-1.8-4.3-4.1-4.4c-2.3-0.1-4.3,1.8-4.4,4.1
		C12,24.2,13.9,26.1,16.2,26.2z"/>
	
		<linearGradient id="SVGID_3_" gradientUnits="userSpaceOnUse" x1="48.8931" y1="76.4501" x2="72.2265" y2="76.4501" gradientTransform="matrix(1 0 0 -1 0 86)">
		<stop  offset="0" style="stop-color:#F15A29"/>
		<stop  offset="0.8949" style="stop-color:#1B75BC"/>
	</linearGradient>
	<path class="st2" d="M33.1,13.8c2.4,0.1,4.3-1.8,4.4-4.1c0.1-2.4-1.8-4.3-4.1-4.4C31.1,5.2,29.1,7,29,9.4
		C28.9,11.7,30.8,13.7,33.1,13.8z"/>
	
		<linearGradient id="SVGID_4_" gradientUnits="userSpaceOnUse" x1="48.8927" y1="76.35" x2="72.2264" y2="76.35" gradientTransform="matrix(1 0 0 -1 0 86)">
		<stop  offset="0" style="stop-color:#F15A29"/>
		<stop  offset="0.8949" style="stop-color:#1B75BC"/>
	</linearGradient>
	<path class="st3" d="M54.2,13.9c2.4,0.1,4.3-1.8,4.4-4.1c0.1-2.4-1.8-4.3-4.1-4.4c-2.4-0.1-4.3,1.8-4.4,4.1S51.8,13.8,54.2,13.9z"
		/>
	
		<linearGradient id="SVGID_5_" gradientUnits="userSpaceOnUse" x1="48.8923" y1="64.25" x2="72.2258" y2="64.25" gradientTransform="matrix(1 0 0 -1 0 86)">
		<stop  offset="0" style="stop-color:#F15A29"/>
		<stop  offset="0.8949" style="stop-color:#1B75BC"/>
	</linearGradient>
	<path class="st4" d="M71.3,26c2.4,0.1,4.3-1.8,4.4-4.1c0.1-2.4-1.8-4.3-4.1-4.4c-2.4-0.1-4.3,1.8-4.4,4.1
		C67.1,23.9,69,25.9,71.3,26z"/>
	
		<linearGradient id="SVGID_6_" gradientUnits="userSpaceOnUse" x1="48.8916" y1="44.25" x2="72.2255" y2="44.25" gradientTransform="matrix(1 0 0 -1 0 86)">
		<stop  offset="0" style="stop-color:#F15A29"/>
		<stop  offset="0.8949" style="stop-color:#1B75BC"/>
	</linearGradient>
	<path class="st5" d="M78.1,37.5c-2.3-0.1-4.3,1.8-4.4,4.1c-0.1,2.4,1.8,4.3,4.1,4.4c2.4,0.1,4.3-1.8,4.4-4.1
		C82.3,39.5,80.5,37.6,78.1,37.5z"/>
	
		<linearGradient id="SVGID_7_" gradientUnits="userSpaceOnUse" x1="48.8926" y1="24.25" x2="72.226" y2="24.25" gradientTransform="matrix(1 0 0 -1 0 86)">
		<stop  offset="0" style="stop-color:#F15A29"/>
		<stop  offset="0.8949" style="stop-color:#1B75BC"/>
	</linearGradient>
	<path class="st6" d="M71.4,57.5c-2.4-0.1-4.3,1.8-4.4,4.1c0,2.4,1.8,4.4,4.2,4.4c2.4,0.1,4.3-1.8,4.4-4.1
		C75.6,59.5,73.8,57.6,71.4,57.5z"/>
	
		<linearGradient id="SVGID_8_" gradientUnits="userSpaceOnUse" x1="48.8928" y1="11.55" x2="72.2261" y2="11.55" gradientTransform="matrix(1 0 0 -1 0 86)">
		<stop  offset="0" style="stop-color:#F15A29"/>
		<stop  offset="0.8949" style="stop-color:#1B75BC"/>
	</linearGradient>
	<path class="st7" d="M54.4,70.2C52,70.1,50.1,72,50,74.3c-0.1,2.4,1.8,4.3,4.1,4.4c2.4,0.1,4.3-1.8,4.4-4.1
		C58.6,72.2,56.7,70.3,54.4,70.2z"/>
	
		<linearGradient id="SVGID_9_" gradientUnits="userSpaceOnUse" x1="48.8932" y1="11.4981" x2="72.2269" y2="11.4981" gradientTransform="matrix(1 0 0 -1 0 86)">
		<stop  offset="0" style="stop-color:#F15A29"/>
		<stop  offset="0.8949" style="stop-color:#1B75BC"/>
	</linearGradient>
	<path class="st8" d="M33.3,70.2c-2.3,0-4.3,1.8-4.4,4.2s1.8,4.3,4.1,4.4c2.4,0.1,4.3-1.8,4.4-4.1C37.5,72.3,35.7,70.3,33.3,70.2z"
		/>
	
		<linearGradient id="SVGID_10_" gradientUnits="userSpaceOnUse" x1="48.8936" y1="23.75" x2="72.227" y2="23.75" gradientTransform="matrix(1 0 0 -1 0 86)">
		<stop  offset="0" style="stop-color:#F15A29"/>
		<stop  offset="0.8949" style="stop-color:#1B75BC"/>
	</linearGradient>
	<path class="st9" d="M16.4,58C14,57.9,12,59.8,12,62.1c-0.1,2.4,1.8,4.3,4.1,4.4c2.4,0.1,4.3-1.8,4.4-4.1
		C20.6,60,18.7,58.1,16.4,58z"/>
	
		<linearGradient id="SVGID_11_" gradientUnits="userSpaceOnUse" x1="48.8918" y1="35.75" x2="72.224" y2="35.75" gradientTransform="matrix(1 0 0 -1 0 86)">
		<stop  offset="0" style="stop-color:#F15A29"/>
		<stop  offset="0.8949" style="stop-color:#1B75BC"/>
	</linearGradient>
	<path class="st10" d="M17.5,46.6c-2-0.1-3.7,1.5-3.8,3.5s1.5,3.7,3.5,3.8s3.7-1.5,3.8-3.5C21.1,48.4,19.5,46.7,17.5,46.6z"/>
	
		<linearGradient id="SVGID_12_" gradientUnits="userSpaceOnUse" x1="48.891" y1="52.65" x2="72.2226" y2="52.65" gradientTransform="matrix(1 0 0 -1 0 86)">
		<stop  offset="0" style="stop-color:#F15A29"/>
		<stop  offset="0.8949" style="stop-color:#1B75BC"/>
	</linearGradient>
	<path class="st11" d="M17.4,29.7c-2-0.1-3.7,1.5-3.8,3.5s1.5,3.7,3.5,3.8s3.7-1.5,3.8-3.5C21,31.4,19.4,29.7,17.4,29.7z"/>
	
		<linearGradient id="SVGID_13_" gradientUnits="userSpaceOnUse" x1="48.8922" y1="66.65" x2="72.2243" y2="66.65" gradientTransform="matrix(1 0 0 -1 0 86)">
		<stop  offset="0" style="stop-color:#F15A29"/>
		<stop  offset="0.8949" style="stop-color:#1B75BC"/>
	</linearGradient>
	<path class="st12" d="M27.3,23c2,0.1,3.7-1.5,3.8-3.5c0.1-2-1.5-3.7-3.5-3.8s-3.7,1.5-3.8,3.5S25.3,22.9,27.3,23z"/>
	
		<linearGradient id="SVGID_14_" gradientUnits="userSpaceOnUse" x1="48.8925" y1="71.95" x2="72.2236" y2="71.95" gradientTransform="matrix(1 0 0 -1 0 86)">
		<stop  offset="0" style="stop-color:#F15A29"/>
		<stop  offset="0.8949" style="stop-color:#1B75BC"/>
	</linearGradient>
	<path class="st13" d="M43.9,10.4c-2-0.1-3.7,1.5-3.8,3.5s1.5,3.7,3.5,3.8c2,0.1,3.7-1.5,3.8-3.5C47.5,12.1,45.9,10.5,43.9,10.4z"/>
	
		<linearGradient id="SVGID_15_" gradientUnits="userSpaceOnUse" x1="48.8936" y1="66.55" x2="72.2252" y2="66.55" gradientTransform="matrix(1 0 0 -1 0 86)">
		<stop  offset="0" style="stop-color:#F15A29"/>
		<stop  offset="0.8949" style="stop-color:#1B75BC"/>
	</linearGradient>
	<path class="st14" d="M56.6,19.3c-0.1,2,1.5,3.7,3.5,3.8c2,0.1,3.7-1.5,3.8-3.5s-1.5-3.7-3.5-3.8C58.3,15.7,56.6,17.3,56.6,19.3z"
		/>
	
		<linearGradient id="SVGID_16_" gradientUnits="userSpaceOnUse" x1="48.8939" y1="52.65" x2="72.2258" y2="52.65" gradientTransform="matrix(1 0 0 -1 0 86)">
		<stop  offset="0" style="stop-color:#F15A29"/>
		<stop  offset="0.8949" style="stop-color:#1B75BC"/>
	</linearGradient>
	<path class="st15" d="M70.1,37c2,0.1,3.7-1.5,3.8-3.5c0.1-2-1.5-3.7-3.5-3.8c-2-0.1-3.7,1.5-3.8,3.5C66.6,35.3,68.1,37,70.1,37z"/>
	
		<linearGradient id="SVGID_17_" gradientUnits="userSpaceOnUse" x1="48.8941" y1="35.45" x2="72.2257" y2="35.45" gradientTransform="matrix(1 0 0 -1 0 86)">
		<stop  offset="0" style="stop-color:#F15A29"/>
		<stop  offset="0.8949" style="stop-color:#1B75BC"/>
	</linearGradient>
	<path class="st16" d="M70.3,54.2c2,0.1,3.7-1.5,3.8-3.5c0.1-2-1.5-3.7-3.5-3.8s-3.7,1.5-3.8,3.5C66.7,52.5,68.3,54.2,70.3,54.2z"/>
	
		<linearGradient id="SVGID_18_" gradientUnits="userSpaceOnUse" x1="48.8936" y1="21.65" x2="72.225" y2="21.65" gradientTransform="matrix(1 0 0 -1 0 86)">
		<stop  offset="0" style="stop-color:#F15A29"/>
		<stop  offset="0.8949" style="stop-color:#1B75BC"/>
	</linearGradient>
	<path class="st17" d="M60.2,60.7c-2-0.1-3.7,1.5-3.8,3.5c-0.1,2,1.5,3.7,3.5,3.8c2,0.1,3.7-1.5,3.8-3.5
		C63.8,62.4,62.2,60.7,60.2,60.7z"/>
	
		<linearGradient id="SVGID_19_" gradientUnits="userSpaceOnUse" x1="48.8926" y1="16.25" x2="72.2241" y2="16.25" gradientTransform="matrix(1 0 0 -1 0 86)">
		<stop  offset="0" style="stop-color:#F15A29"/>
		<stop  offset="0.8949" style="stop-color:#1B75BC"/>
	</linearGradient>
	<path class="st18" d="M43.8,66.1c-2-0.1-3.7,1.5-3.8,3.5s1.5,3.7,3.5,3.8c2,0.1,3.7-1.5,3.8-3.5C47.4,67.8,45.8,66.1,43.8,66.1z"/>
	
		<linearGradient id="SVGID_20_" gradientUnits="userSpaceOnUse" x1="48.8923" y1="21.4522" x2="72.2244" y2="21.4522" gradientTransform="matrix(1 0 0 -1 0 86)">
		<stop  offset="0" style="stop-color:#F15A29"/>
		<stop  offset="0.8949" style="stop-color:#1B75BC"/>
	</linearGradient>
	<path class="st19" d="M31.1,64.7c0.1-2-1.5-3.7-3.5-3.8s-3.7,1.5-3.8,3.5c-0.1,2,1.5,3.7,3.5,3.8C29.3,68.2,31,66.7,31.1,64.7z"/>
	
		<linearGradient id="SVGID_21_" gradientUnits="userSpaceOnUse" x1="48.8971" y1="30.5471" x2="72.2341" y2="30.5471" gradientTransform="matrix(1 0 0 -1 0 86)">
		<stop  offset="0" style="stop-color:#F15A29"/>
		<stop  offset="0.8949" style="stop-color:#1B75BC"/>
	</linearGradient>
	<path class="st20" d="M27.9,55.5c0-1.5-1.1-2.8-2.7-2.8c-1.5,0-2.8,1.1-2.8,2.7c0,1.5,1.1,2.8,2.7,2.8
		C26.6,58.3,27.9,57.1,27.9,55.5z"/>
	
		<linearGradient id="SVGID_22_" gradientUnits="userSpaceOnUse" x1="48.896" y1="44.05" x2="72.2317" y2="44.05" gradientTransform="matrix(1 0 0 -1 0 86)">
		<stop  offset="0" style="stop-color:#F15A29"/>
		<stop  offset="0.8949" style="stop-color:#1B75BC"/>
	</linearGradient>
	<path class="st21" d="M18.3,41.9c0,1.5,1.1,2.8,2.7,2.8c1.5,0,2.8-1.1,2.8-2.7c0-1.5-1.1-2.8-2.7-2.8
		C19.6,39.2,18.3,40.4,18.3,41.9z"/>
	
		<linearGradient id="SVGID_23_" gradientUnits="userSpaceOnUse" x1="48.8952" y1="57.55" x2="72.2305" y2="57.55" gradientTransform="matrix(1 0 0 -1 0 86)">
		<stop  offset="0" style="stop-color:#F15A29"/>
		<stop  offset="0.8949" style="stop-color:#1B75BC"/>
	</linearGradient>
	<path class="st22" d="M25.2,31.2c1.5,0,2.8-1.1,2.8-2.7c0-1.5-1.1-2.8-2.7-2.8c-1.5,0-2.8,1.1-2.8,2.7
		C22.5,29.9,23.7,31.2,25.2,31.2z"/>
	
		<linearGradient id="SVGID_24_" gradientUnits="userSpaceOnUse" x1="48.8941" y1="65.85" x2="72.2296" y2="65.85" gradientTransform="matrix(1 0 0 -1 0 86)">
		<stop  offset="0" style="stop-color:#F15A29"/>
		<stop  offset="0.8949" style="stop-color:#1B75BC"/>
	</linearGradient>
	<path class="st23" d="M33.8,20.1c0,1.5,1.2,2.8,2.7,2.8s2.8-1.1,2.8-2.7c0-1.5-1.1-2.8-2.7-2.8C35.2,17.4,33.9,18.5,33.8,20.1z"/>
	
		<linearGradient id="SVGID_25_" gradientUnits="userSpaceOnUse" x1="48.8926" y1="65.85" x2="72.2291" y2="65.85" gradientTransform="matrix(1 0 0 -1 0 86)">
		<stop  offset="0" style="stop-color:#F15A29"/>
		<stop  offset="0.8949" style="stop-color:#1B75BC"/>
	</linearGradient>
	<path class="st24" d="M50.8,22.9c1.5,0,2.8-1.1,2.8-2.7c0-1.5-1.1-2.8-2.7-2.8c-1.5,0-2.8,1.1-2.8,2.7
		C48.1,21.6,49.3,22.9,50.8,22.9z"/>
	
		<linearGradient id="SVGID_26_" gradientUnits="userSpaceOnUse" x1="48.8911" y1="57.65" x2="72.227" y2="57.65" gradientTransform="matrix(1 0 0 -1 0 86)">
		<stop  offset="0" style="stop-color:#F15A29"/>
		<stop  offset="0.8949" style="stop-color:#1B75BC"/>
	</linearGradient>
	<path class="st25" d="M59.5,28.3c0,1.5,1.1,2.8,2.7,2.8c1.5,0,2.8-1.1,2.8-2.7c0-1.5-1.2-2.8-2.7-2.8
		C60.8,25.6,59.5,26.8,59.5,28.3z"/>
	
		<linearGradient id="SVGID_27_" gradientUnits="userSpaceOnUse" x1="48.8909" y1="44.05" x2="72.2266" y2="44.05" gradientTransform="matrix(1 0 0 -1 0 86)">
		<stop  offset="0" style="stop-color:#F15A29"/>
		<stop  offset="0.8949" style="stop-color:#1B75BC"/>
	</linearGradient>
	<path class="st26" d="M69.4,42c0-1.5-1.1-2.8-2.7-2.8c-1.5,0-2.8,1.1-2.8,2.7c0,1.5,1.1,2.8,2.7,2.8C68.1,44.7,69.3,43.5,69.4,42z"
		/>
	
		<linearGradient id="SVGID_28_" gradientUnits="userSpaceOnUse" x1="48.8913" y1="30.65" x2="72.2272" y2="30.65" gradientTransform="matrix(1 0 0 -1 0 86)">
		<stop  offset="0" style="stop-color:#F15A29"/>
		<stop  offset="0.8949" style="stop-color:#1B75BC"/>
	</linearGradient>
	<path class="st27" d="M62.3,52.6c-1.5,0-2.8,1.2-2.8,2.7s1.1,2.8,2.7,2.8c1.5,0,2.8-1.1,2.8-2.7C65,53.9,63.8,52.7,62.3,52.6z"/>
	
		<linearGradient id="SVGID_29_" gradientUnits="userSpaceOnUse" x1="48.8927" y1="22.25" x2="72.2289" y2="22.25" gradientTransform="matrix(1 0 0 -1 0 86)">
		<stop  offset="0" style="stop-color:#F15A29"/>
		<stop  offset="0.8949" style="stop-color:#1B75BC"/>
	</linearGradient>
	<path class="st28" d="M53.4,63.8c0-1.5-1.1-2.8-2.7-2.8c-1.5,0-2.8,1.1-2.8,2.7c0,1.5,1.1,2.8,2.7,2.8
		C52.1,66.5,53.4,65.3,53.4,63.8z"/>
	
		<linearGradient id="SVGID_30_" gradientUnits="userSpaceOnUse" x1="48.8922" y1="22.35" x2="72.2248" y2="22.35" gradientTransform="matrix(1 0 0 -1 0 86)">
		<stop  offset="0" style="stop-color:#F15A29"/>
		<stop  offset="0.8949" style="stop-color:#1B75BC"/>
	</linearGradient>
	<path class="st29" d="M36.8,60.9c-1.5,0-2.8,1.1-2.8,2.7c0,1.5,1.1,2.8,2.7,2.8c1.5,0,2.8-1.1,2.8-2.7C39.6,62.2,38.4,61,36.8,60.9
		z"/>
</g>
<g>
	<path class="st30" d="M106.3,30.3h3.6v4.6c2-2.8,4.8-5.1,9.3-5.1c5.8,0,11.6,4.4,11.6,11.9v0.1c0,7.5-5.7,12-11.6,12
		c-4.5,0-7.4-2.3-9.3-4.9v11.5h-3.6V30.3z M127,41.9L127,41.9c0-5.5-3.9-9-8.5-9c-4.5,0-8.8,3.6-8.8,8.9v0.1c0,5.3,4.3,8.9,8.8,8.9
		C123.2,50.7,127,47.4,127,41.9z"/>
	<path class="st30" d="M137.6,30.3h3.6v6c1.8-3.8,5.3-6.6,9.9-6.4v3.7h-0.3c-5.3,0-9.6,3.6-9.6,10.5v9.2h-3.6L137.6,30.3L137.6,30.3
		z"/>
	<path class="st30" d="M166.6,50.9c3.3,0,5.7-1.3,7.6-3.2l2.3,1.9c-2.4,2.6-5.4,4.3-10,4.3c-6.7,0-12.1-4.9-12.1-12
		c0-6.7,4.9-12,11.6-12c7.2,0,11.3,5.4,11.3,12.2c0,0.3,0,0.7,0,1.2H158C158.5,48.1,162.3,50.9,166.6,50.9z M173.6,40.4
		c-0.4-4.2-3-7.7-7.7-7.7c-4.2,0-7.4,3.3-7.9,7.7H173.6z"/>
	<path class="st30" d="M181.8,50.4l1.8-2.4c2.6,1.9,5.5,2.9,8.4,2.9s5-1.4,5-3.6v-0.1c0-2.3-2.9-3.2-6.1-4c-3.8-1-8-2.3-8-6.5v-0.1
		c0-4,3.5-6.6,8.3-6.6c3,0,6.2,1,8.7,2.5l-1.6,2.6c-2.3-1.4-4.8-2.2-7.2-2.2c-2.9,0-4.7,1.4-4.7,3.3v0.1c0,2.2,3,3,6.2,4
		c3.8,1.1,7.8,2.4,7.8,6.6V47c0,4.4-3.8,6.9-8.6,6.9C188.4,53.7,184.6,52.5,181.8,50.4z"/>
	<path class="st30" d="M205.6,46.6L205.6,46.6c0-5,4.2-7.6,10.4-7.6c3.1,0,5.3,0.4,7.4,1v-0.7c0-4.1-2.6-6.2-7.2-6.2
		c-2.9,0-5.1,0.7-7.4,1.6l-1.1-2.8c2.7-1.2,5.3-2,8.8-2c3.4,0,6.1,0.9,7.8,2.5c1.7,1.6,2.5,3.8,2.5,6.8v14.1h-3.6v-3.4
		c-1.7,2-4.5,3.9-8.7,3.9C210.1,53.8,205.6,51.3,205.6,46.6z M223.5,44.9v-2.1c-1.8-0.5-4.1-1-7.1-1c-4.5,0-7.1,1.9-7.1,4.6v0.1
		c0,2.9,2.8,4.6,6.1,4.6C219.8,51,223.5,48.5,223.5,44.9z"/>
	<path class="st30" d="M234.6,57.3l1.6-2.7c2.8,1.9,5.9,2.9,9.3,2.9c5.3,0,8.8-2.8,8.8-8.2v-2.7c-2.1,2.7-5.1,4.9-9.5,4.9
		c-5.8,0-11.4-4.1-11.4-10.8v-0.1c0-6.7,5.6-10.9,11.4-10.9c4.6,0,7.5,2.1,9.5,4.6v-4.1h3.6v19c0,3.6-1.1,6.3-3.1,8.1
		c-2.2,2-5.4,3.1-9.2,3.1C241.6,60.5,237.8,59.4,234.6,57.3z M254.5,40.7L254.5,40.7c0-4.8-4.3-7.9-8.9-7.9c-4.6,0-8.4,3-8.4,7.7
		v0.1c0,4.6,3.9,7.8,8.4,7.8C250.2,48.5,254.5,45.3,254.5,40.7z"/>
	<path class="st30" d="M266.3,21.5h4.1v3.8h-4.1V21.5z M266.6,30.3h3.6v23h-3.6V30.3z"/>
	<path class="st30" d="M277,46.6L277,46.6c0-5,4.2-7.6,10.4-7.6c3.1,0,5.3,0.4,7.4,1v-0.7c0-4.1-2.6-6.2-7.2-6.2
		c-2.9,0-5.1,0.7-7.4,1.6l-1.1-2.8c2.7-1.2,5.3-2,8.8-2c3.4,0,6.1,0.9,7.8,2.5c1.7,1.6,2.5,3.8,2.5,6.8v14.1h-3.6v-3.4
		c-1.7,2-4.5,3.9-8.7,3.9C281.5,53.8,277,51.3,277,46.6z M294.8,44.9v-2.1c-1.8-0.5-4.1-1-7.1-1c-4.5,0-7.1,1.9-7.1,4.6v0.1
		c0,2.9,2.8,4.6,6.1,4.6C291.2,51,294.8,48.5,294.8,44.9z"/>
</g>
</svg>
